Coordinates
version=1
nRows=26
nColumns=22
inDegrees=yes

Units are S.I. units (second, meters, Newtons, ...)
If the header above contains a line with 'inDegrees', this indicates whether rotational values are in degrees (yes) or radians (no).

endheader
time	pelvis_tilt	pelvis_list	pelvis_rotation	pelvis_tx	pelvis_ty	pelvis_tz	hip_flexion_r	hip_adduction_r	hip_rotation_r	knee_angle_r	ankle_angle_r	subtalar_angle_r	hip_flexion_l	hip_adduction_l	hip_rotation_l	knee_angle_l	ankle_angle_l	subtalar_angle_l	lumbar_extension	lumbar_bending	lumbar_rotation
      5.10000000	     -3.61082354	      0.33390369	    303.57176328	     -0.54993076	      0.91651678	      0.76025819	     31.91338194	      2.49306353	      8.93150189	    -13.73995020	     10.91485993	     10.29997962	    -11.33958038	      7.27068318	     26.13757440	    -21.80603364	     11.55514280	    -16.34238553	     -6.17186837	      1.85636080	    -13.92159841
      5.11000000	     -3.62695147	      0.36754038	    304.11083096	     -0.54504575	      0.91547002	      0.77042085	     32.09229603	      2.74220999	      9.23700225	    -14.73358190	     10.32568646	      9.53614418	    -11.95646825	      6.98873079	     26.41376296	    -21.86889398	     11.06333773	    -15.60905920	     -5.92048259	      1.94421497	    -14.06291521
      5.12000000	     -3.69501617	      0.37851817	    304.64147752	     -0.54004811	      0.91453609	      0.78065238	     32.26638246	      3.05214852	      9.60100633	    -15.84586564	      9.58907130	      8.77364491	    -12.48640421	      6.66470651	     26.57876123	    -22.04947094	     10.49502841	    -14.73173761	     -5.65798258	      2.10186078	    -14.19068136
      5.13000000	     -3.80856219	      0.36010799	    305.16893519	     -0.53494553	      0.91376706	      0.79090589	     32.43133555	      3.41012055	      9.96973191	    -17.04722377	      8.74421702	      8.05539022	    -12.91310021	      6.30897969	     26.62792401	    -22.38410501	      9.84345284	    -13.67185395	     -5.39710683	      2.32792636	    -14.30877340
      5.14000000	     -3.94854665	      0.30188618	    305.70264815	     -0.52972304	      0.91323857	      0.80111595	     32.56543276	      3.78792447	     10.27653946	    -18.30092345	      7.84464133	      7.41064780	    -13.22433710	      5.93986431	     26.54015809	    -22.91490228	      9.07829362	    -12.40140319	     -5.16376942	      2.61486324	    -14.43406393
      5.15000000	     -4.12669180	      0.21405000	    306.21708754	     -0.52443306	      0.91295253	      0.81125658	     32.69255313	      4.18996414	     10.48349180	    -19.58608236	      6.90630012	      6.93202593	    -13.37200904	      5.56488870	     26.25721061	    -23.68219079	      8.22843043	    -10.92988801	     -4.94278055	      2.96462724	    -14.51950714
      5.16000000	     -4.29126955	      0.07354414	    306.74674527	     -0.51902307	      0.91303174	      0.82124072	     32.73362492	      4.55276590	     10.54122583	    -20.83680747	      6.02191746	      6.58265168	    -13.38568783	      5.21239115	     25.82399483	    -24.70800868	      7.23721928	     -9.19581344	     -4.79284166	      3.35074685	    -14.62828996
      5.17000000	     -4.45847859	     -0.09587337	    307.26336538	     -0.51357061	      0.91341599	      0.83104418	     32.73333859	      4.88026616	     10.41958043	    -22.05298536	      5.22482189	      6.43792308	    -13.19315219	      4.88511416	     25.14477218	    -26.04139061	      6.14915863	     -7.29124222	     -4.68428334	      3.76784397	    -14.70492942
      5.18000000	     -4.61717849	     -0.28855895	    307.77054043	     -0.50810664	      0.91409192	      0.84061875	     32.68192619	      5.14883954	     10.09247676	    -23.20675735	      4.55940866	      6.46765861	    -12.77077119	      4.58561268	     24.20114612	    -27.70432558	      4.98001164	     -5.28799634	     -4.62250868	      4.19955889	    -14.74211954
      5.19000000	     -4.73012571	     -0.51945668	    308.28298871	     -0.50266595	      0.91512441	      0.84993617	     32.50495648	      5.33496681	      9.60957518	    -24.22884503	      4.03372066	      6.65005284	    -12.15503937	      4.31293201	     23.04249619	    -29.67531134	      3.71425411	     -3.15734795	     -4.64883324	      4.61554020	    -14.77177870
      5.20000000	     -4.82270303	     -0.76371212	    308.78831818	     -0.49733494	      0.91639651	      0.85898305	     32.24809320	      5.45680306	      8.97449996	    -25.12252009	      3.64531371	      6.94179635	    -11.29063205	      4.03705952	     21.62118791	    -31.96241411	      2.40252615	     -1.09943118	     -4.72428645	      5.01501273	    -14.75852894
      5.21000000	     -4.87185816	     -1.02652710	    309.29440395	     -0.49217129	      0.91791901	      0.86777091	     31.86199674	      5.51769911	      8.27410158	    -25.84260263	      3.40522490	      7.31747194	    -10.21657972	      3.74239941	     20.00038642	    -34.51745192	      1.04501837	      0.92111247	     -4.86963975	      5.37125299	    -14.72681015
      5.22000000	     -4.91751911	     -1.28798144	    309.77773003	     -0.48726262	      0.91954752	      0.87633510	     31.41396831	      5.55921459	      7.48952930	    -26.42039766	      3.27308405	      7.69466311	     -8.90656670	      3.38004635	     18.16777352	    -37.30783578	     -0.28632292	      2.64863883	     -5.03695321	      5.69533913	    -14.61018916
      5.23000000	     -4.95505773	     -1.54730847	    310.23280303	     -0.48265061	      0.92126033	      0.88471579	     30.88981089	      5.60221676	      6.69308628	    -26.83939357	      3.23210483	      8.03398512	     -7.40976488	      2.93253432	     16.20085700	    -40.25987282	     -1.56152248	      4.05237219	     -5.22538618	      5.97524691	    -14.41291917
      5.24000000	     -4.98449032	     -1.80926897	    310.64435254	     -0.47836053	      0.92303370	      0.89297669	     30.28691371	      5.67500561	      5.92919244	    -27.10512924	      3.25131423	      8.30631638	     -5.78734702	      2.38594558	     14.16596141	    -43.29185276	     -2.72954215	      5.11291766	     -5.43308341	      6.20542713	    -14.12121500
      5.25000000	     -5.00731812	     -2.07820198	    310.99344954	     -0.47437926	      0.92485115	      0.90116833	     29.61180752	      5.80079738	      5.23003538	    -27.23704980	      3.28804582	      8.46331975	     -4.10098398	      1.73639226	     12.10939566	    -46.32522764	     -3.71620322	      5.76083238	     -5.65713485	      6.39426456	    -13.72314997
      5.26000000	     -5.01638853	     -2.33974690	    311.28059436	     -0.47067591	      0.92668996	      0.90929662	     28.88211976	      5.97513230	      4.64628849	    -27.25945380	      3.36124303	      8.53423876	     -2.39085836	      1.02155498	     10.11839137	    -49.30153816	     -4.48515051	      6.13629935	     -5.88641035	      6.52735602	    -13.22998320
      5.27000000	     -5.01879202	     -2.56864084	    311.50128364	     -0.46721238	      0.92850573	      0.91738956	     28.13568182	      6.18507269	      4.16851298	    -27.19591372	      3.46057721	      8.50176294	     -0.67340482	      0.27071916	      8.22119359	    -52.16637997	     -4.97137156	      6.23259584	     -6.08624660	      6.59188475	    -12.65119341
      5.28000000	     -5.00738176	     -2.79391820	    311.65027615	     -0.46393060	      0.93033627	      0.92543930	     27.36022020	      6.44406413	      3.80815290	    -27.07810578	      3.54315596	      8.35239088	      0.98699912	     -0.50662149	      6.43451610	    -54.87252422	     -5.16082202	      6.05137981	     -6.28803418	      6.61617347	    -11.98311412
      5.29000000	     -4.98440331	     -2.97530238	    311.75257325	     -0.46074897	      0.93212843	      0.93341840	     26.59354233	      6.71163663	      3.56105643	    -26.92041365	      3.67113592	      7.97199951	      2.60810939	     -1.25830571	      4.78612815	    -57.38758107	     -5.13474240	      5.49705130	     -6.44429740	      6.58024636	    -11.29120561
      5.30000000	     -4.92591327	     -3.16601876	    311.79675189	     -0.45762728	      0.93398411	      0.94132871	     25.78507436	      6.99836075	      3.40813244	    -26.73782484	      3.77157246	      7.52862622	      4.09886312	     -1.98533012	      3.26187539	    -59.66770746	     -4.81180948	      4.82106221	     -6.62539282	      6.51139900	    -10.54648802
      5.31000000	     -4.84096729	     -3.33784492	    311.81364250	     -0.45451850	      0.93584045	      0.94909207	     24.98074567	      7.27364868	      3.33603720	    -26.56048524	      3.88219629	      7.01065215	      5.49540282	     -2.64942610	      1.88576606	    -61.71167875	     -4.26932973	      4.03310426	     -6.80002957	      6.40746645	     -9.79705139
      5.32000000	     -4.72814637	     -3.48952510	    311.82136991	     -0.45138169	      0.93769066	      0.95667548	     24.18383287	      7.52034595	      3.31691774	    -26.39450778	      4.01220932	      6.43831060	      6.79499674	     -3.23466686	      0.65516352	    -63.50550154	     -3.55990543	      3.18444040	     -6.96746791	      6.27322269	     -9.07380979
      5.33000000	     -4.59208676	     -3.61932080	    311.83685436	     -0.44819626	      0.93951921	      0.96404860	     23.40084268	      7.72896040	      3.32979894	    -26.24177081	      4.16168198	      5.85191964	      8.00561778	     -3.73663948	     -0.43789155	    -65.04440112	     -2.74325857	      2.34232659	     -7.12355757	      6.11702190	     -8.39990631
      5.34000000	     -4.43324312	     -3.73123843	    311.87934695	     -0.44493965	      0.94131559	      0.97117158	     22.62829365	      7.89052717	      3.34886004	    -26.09912226	      4.33503223	      5.25380355	      9.12698637	     -4.14426252	     -1.38295246	    -66.32690739	     -1.85831402	      1.54385170	     -7.27414643	      5.94632642	     -7.77874286
      5.35000000	     -4.25897759	     -3.82735714	    311.95691121	     -0.44162048	      0.94305849	      0.97803749	     21.87043804	      8.00803203	      3.35991474	    -25.96637368	      4.53389786	      4.67548349	     10.16743226	     -4.47164346	     -2.20181296	    -67.35768057	     -0.94888142	      0.83860393	     -7.41694260	      5.77048042	     -7.23069373
